<svg xmlns="http://www.w3.org/2000/svg" width="850" height="400">
  <rect x="20" y="20" width="160" height="30" fill="#cfe2f3" stroke="#6fa8dc" />
  <text x="25" y="40" font-size="12">M1 INI Parsing</text>

  <rect x="40" y="70" width="160" height="25" fill="#d9ead3" stroke="#93c47d" />
  <text x="45" y="88" font-size="10">ST1 Workspace</text>

  <rect x="40" y="105" width="160" height="25" fill="#d9ead3" stroke="#93c47d" />
  <text x="45" y="123" font-size="10">ST2 Parser</text>

  <rect x="40" y="140" width="160" height="25" fill="#d9ead3" stroke="#93c47d" />
  <text x="45" y="158" font-size="10">ST3 Tests</text>

  <rect x="40" y="175" width="160" height="25" fill="#d9ead3" stroke="#93c47d" />
  <text x="45" y="193" font-size="10">ST4 Docs</text>

  <rect x="250" y="20" width="180" height="30" fill="#fce5cd" stroke="#e69138" />
  <text x="255" y="40" font-size="12">M2 ECS</text>

  <rect x="270" y="70" width="160" height="25" fill="#fff2cc" stroke="#d6b656" />
  <text x="275" y="88" font-size="10">ST5 ECS scaffold</text>

  <rect x="270" y="105" width="160" height="25" fill="#fff2cc" stroke="#d6b656" />
  <text x="275" y="123" font-size="10">ST6 Manager</text>

  <rect x="270" y="140" width="160" height="25" fill="#fff2cc" stroke="#d6b656" />
  <text x="275" y="158" font-size="10">ST7 Spawn</text>

  <rect x="270" y="175" width="160" height="25" fill="#fff2cc" stroke="#d6b656" />
  <text x="275" y="193" font-size="10">ST8 Tests</text>

  <rect x="270" y="210" width="160" height="25" fill="#fff2cc" stroke="#d6b656" />
  <text x="275" y="228" font-size="10">ST9 Docs</text>

  <rect x="480" y="20" width="220" height="30" fill="#ead1dc" stroke="#a64d79" />
  <text x="485" y="40" font-size="12">M3 Engine Map</text>

  <rect x="500" y="70" width="160" height="25" fill="#f4cccc" stroke="#a64d79" />
  <text x="505" y="88" font-size="10">ST10 Map script</text>

  <rect x="500" y="105" width="160" height="25" fill="#f4cccc" stroke="#a64d79" />
  <text x="505" y="123" font-size="10">ST11 GameLogic</text>

  <rect x="500" y="140" width="160" height="25" fill="#f4cccc" stroke="#a64d79" />
  <text x="505" y="158" font-size="10">ST12 GameClient</text>

  <rect x="500" y="175" width="160" height="25" fill="#f4cccc" stroke="#a64d79" />
  <text x="505" y="193" font-size="10">ST13 GameNetwork</text>

  <rect x="500" y="210" width="160" height="25" fill="#f4cccc" stroke="#a64d79" />
  <text x="505" y="228" font-size="10">ST14 Consolidate</text>
</svg>
